<svg width="21" height="15" viewBox="0 0 21 15" fill="none" xmlns="http://www.w3.org/2000/svg">
<path fill-rule="evenodd" clip-rule="evenodd" d="M11.2471 0.195388L20.5824 3.83542H20.5784C20.7049 3.88455 20.8131 3.97049 20.8884 4.08172C20.9637 4.19296 21.0026 4.32416 20.9999 4.45772C20.9971 4.59129 20.9528 4.72083 20.873 4.82897C20.7931 4.93711 20.6815 5.01868 20.5531 5.06273L11.2177 8.29803C11.1467 8.32312 11.0718 8.33597 10.9963 8.33601C10.9209 8.33574 10.846 8.3229 10.775 8.29803L2.99861 5.60108V9.56987C2.99861 9.83042 2.89323 10.0803 2.70566 10.2645C2.51808 10.4488 2.26367 10.5523 1.9984 10.5523C1.73312 10.5523 1.47871 10.4488 1.29114 10.2645C1.10356 10.0803 0.998182 9.83042 0.998182 9.56987V4.77195C1.00448 4.70515 1.01835 4.63925 1.03952 4.57547C1.03565 4.55863 1.02788 4.54291 1.0201 4.52719C1.00914 4.50503 0.998182 4.48288 0.998182 4.45759C0.995449 4.32405 1.03435 4.19288 1.10968 4.08168C1.185 3.97047 1.29315 3.88454 1.41961 3.83542L10.755 0.195388C10.913 0.133764 11.089 0.133764 11.2471 0.195388ZM11.0003 9.76642L16.1094 7.9916H16.1081C16.2087 7.95683 16.3163 7.94626 16.4219 7.96077C16.5275 7.97529 16.628 8.01447 16.715 8.07503C16.802 8.13559 16.873 8.21577 16.9219 8.30882C16.9709 8.40188 16.9964 8.50511 16.9963 8.60984V11.8844C16.9961 12.0199 16.9532 12.1519 16.8734 12.2624C16.7936 12.3729 16.6809 12.4564 16.5508 12.5014L12.55 13.8898C11.545 14.2356 10.4503 14.2356 9.44532 13.8898L5.44445 12.5014C5.31437 12.4564 5.20168 12.3729 5.1219 12.2624C5.04213 12.1519 4.9992 12.0199 4.99902 11.8844V8.60984C4.99895 8.50511 5.02445 8.40188 5.07338 8.30882C5.12232 8.21577 5.19327 8.13559 5.28027 8.07503C5.36727 8.01447 5.4678 7.97529 5.5734 7.96077C5.67901 7.94626 5.78663 7.95683 5.88722 7.9916L11.0003 9.76642Z" fill="white"/>
</svg>
