<svg width="21" height="15" viewBox="0 0 21 15" fill="none" xmlns="http://www.w3.org/2000/svg">
<path fill-rule="evenodd" clip-rule="evenodd" d="M10.9599 0.161574L20.2953 3.80161H20.2913C20.4178 3.85073 20.5259 3.93668 20.6013 4.04791C20.6766 4.15914 20.7155 4.29034 20.7128 4.42391C20.71 4.55747 20.6657 4.68702 20.5859 4.79516C20.506 4.9033 20.3944 4.98487 20.266 5.02892L10.9306 8.26421C10.8596 8.28931 10.7847 8.30216 10.7092 8.3022C10.6338 8.30193 10.5589 8.28908 10.4878 8.26421L2.7115 5.56726V9.53606C2.7115 9.7966 2.60612 10.0465 2.41855 10.2307C2.23097 10.4149 1.97656 10.5184 1.71129 10.5184C1.44601 10.5184 1.19161 10.4149 1.00403 10.2307C0.816452 10.0465 0.711072 9.7966 0.711072 9.53606V4.73814C0.717375 4.67134 0.731242 4.60544 0.752415 4.54166C0.748541 4.52481 0.740766 4.5091 0.732992 4.49338C0.72203 4.47122 0.711072 4.44907 0.711072 4.42378C0.70834 4.29024 0.747244 4.15907 0.822569 4.04786C0.897893 3.93666 1.00604 3.85073 1.1325 3.80161L10.4678 0.161574C10.6259 0.0999505 10.8019 0.0999505 10.9599 0.161574ZM10.7132 9.73261L15.8223 7.95778H15.821C15.9216 7.92301 16.0292 7.91244 16.1348 7.92696C16.2404 7.94148 16.3409 7.98066 16.4279 8.04122C16.5149 8.10178 16.5859 8.18195 16.6348 8.27501C16.6837 8.36806 16.7092 8.47129 16.7092 8.57603V11.8506C16.709 11.9861 16.6661 12.1181 16.5863 12.2286C16.5065 12.3391 16.3938 12.4226 16.2637 12.4675L12.2629 13.856C11.2579 14.2018 10.1631 14.2018 9.15821 13.856L5.15734 12.4675C5.02726 12.4226 4.91457 12.3391 4.8348 12.2286C4.75502 12.1181 4.71209 11.9861 4.71191 11.8506V8.57603C4.71184 8.47129 4.73734 8.36806 4.78627 8.27501C4.83521 8.18195 4.90616 8.10178 4.99316 8.04122C5.08016 7.98066 5.18069 7.94148 5.28629 7.92696C5.3919 7.91244 5.49952 7.92301 5.60011 7.95778L10.7132 9.73261Z" fill="#00D2BD"/>
</svg>
