<svg width="22" height="18" viewBox="0 0 22 18" fill="none" xmlns="http://www.w3.org/2000/svg">
<path d="M17.5998 6.02068C18.4466 6.02064 19.2754 6.24352 19.9868 6.66256C20.6982 7.08161 21.262 7.67902 21.6104 8.3831C21.9588 9.08718 22.077 9.86802 21.951 10.6319C21.8249 11.3958 21.4599 12.1103 20.8998 12.6896V16.896C20.8998 17.0842 20.8471 17.2693 20.7467 17.4336C20.6462 17.598 20.5014 17.7362 20.326 17.8351C20.1505 17.9341 19.9502 17.9904 19.7442 17.9989C19.5381 18.0073 19.3331 17.9676 19.1486 17.8834L17.5998 17.177L16.051 17.8834C15.8665 17.9676 15.6615 18.0073 15.4555 17.9989C15.2494 17.9904 15.0491 17.9341 14.8737 17.8351C14.6982 17.7362 14.5534 17.598 14.4529 17.4336C14.3525 17.2693 14.2998 17.0842 14.2998 16.896V12.6896C13.7397 12.1103 13.3747 11.3958 13.2486 10.6319C13.1226 9.86802 13.2409 9.08718 13.5893 8.3831C13.9377 7.67902 14.5014 7.08161 15.2128 6.66256C15.9242 6.24352 16.753 6.02064 17.5998 6.02068ZM19.7998 0C20.3832 0 20.9428 0.21144 21.3554 0.587806C21.768 0.964171 21.9998 1.47463 21.9998 2.00689V4.01379C21.9998 4.27992 21.8839 4.53515 21.6776 4.72333C21.4713 4.91152 21.1915 5.01724 20.8998 5.01724C20.608 5.01724 20.3282 4.91152 20.122 4.72333C19.9157 4.53515 19.7998 4.27992 19.7998 4.01379V2.00689H2.19998V14.0483H10.9999C11.2916 14.0483 11.5714 14.154 11.7777 14.3422C11.984 14.5303 12.0999 14.7856 12.0999 15.0517C12.0999 15.3178 11.984 15.5731 11.7777 15.7613C11.5714 15.9494 11.2916 16.0552 10.9999 16.0552H2.19998C1.61651 16.0552 1.05693 15.8437 0.644358 15.4674C0.231782 15.091 0 14.5805 0 14.0483V2.00689C0 1.47463 0.231782 0.964171 0.644358 0.587806C1.05693 0.21144 1.61651 0 2.19998 0H19.7998ZM18.6998 13.9218C17.9782 14.0913 17.2214 14.0913 16.4998 13.9218V15.435L17.1081 15.1581C17.2608 15.0885 17.4291 15.0522 17.5998 15.0522C17.7705 15.0522 17.9388 15.0885 18.0915 15.1581L18.6998 15.435V13.9218ZM17.5998 8.02758C17.0163 8.02758 16.4568 8.23902 16.0442 8.61538C15.6316 8.99175 15.3998 9.50221 15.3998 10.0345C15.3998 10.5667 15.6316 11.0772 16.0442 11.4536C16.4568 11.8299 17.0163 12.0414 17.5998 12.0414C18.1833 12.0414 18.7428 11.8299 19.1554 11.4536C19.568 11.0772 19.7998 10.5667 19.7998 10.0345C19.7998 9.50221 19.568 8.99175 19.1554 8.61538C18.7428 8.23902 18.1833 8.02758 17.5998 8.02758ZM7.69991 9.03103C7.98028 9.03131 8.24994 9.12924 8.45381 9.30481C8.65768 9.48039 8.78036 9.72035 8.79679 9.97567C8.81322 10.231 8.72216 10.4824 8.54221 10.6785C8.36227 10.8746 8.10701 11.0007 7.82861 11.0309L7.69991 11.0379H5.49994C5.21957 11.0376 4.94991 10.9397 4.74604 10.7641C4.54217 10.5886 4.41949 10.3486 4.40306 10.0933C4.38663 9.83796 4.47769 9.58656 4.65764 9.39043C4.83759 9.1943 5.09284 9.06826 5.37124 9.03805L5.49994 9.03103H7.69991ZM12.0999 5.01724C12.3916 5.01724 12.6714 5.12296 12.8777 5.31114C13.084 5.49932 13.1999 5.75455 13.1999 6.02068C13.1999 6.28681 13.084 6.54205 12.8777 6.73023C12.6714 6.91841 12.3916 7.02413 12.0999 7.02413H5.49994C5.2082 7.02413 4.92842 6.91841 4.72213 6.73023C4.51584 6.54205 4.39995 6.28681 4.39995 6.02068C4.39995 5.75455 4.51584 5.49932 4.72213 5.31114C4.92842 5.12296 5.2082 5.01724 5.49994 5.01724H12.0999Z" fill="black"/>
</svg>
