<svg width="54" height="46" viewBox="0 0 54 46" fill="none" xmlns="http://www.w3.org/2000/svg">
<path fill-rule="evenodd" clip-rule="evenodd" d="M0.400024 3.99995C0.400024 2.99213 0.80038 2.02558 1.51302 1.31295C2.22566 0.600308 3.1922 0.199951 4.20002 0.199951H49.8C50.8078 0.199951 51.7744 0.600308 52.487 1.31295C53.1997 2.02558 53.6 2.99213 53.6 3.99995C53.6 5.00777 53.1997 5.97432 52.487 6.68696C51.7744 7.39959 50.8078 7.79995 49.8 7.79995H4.20002C3.1922 7.79995 2.22566 7.39959 1.51302 6.68696C0.80038 5.97432 0.400024 5.00777 0.400024 3.99995ZM0.400024 23C0.400024 21.9921 0.80038 21.0256 1.51302 20.3129C2.22566 19.6003 3.1922 19.2 4.20002 19.2H27C28.0078 19.2 28.9744 19.6003 29.687 20.3129C30.3997 21.0256 30.8 21.9921 30.8 23C30.8 24.0078 30.3997 24.9743 29.687 25.687C28.9744 26.3996 28.0078 26.8 27 26.8H4.20002C3.1922 26.8 2.22566 26.3996 1.51302 25.687C0.80038 24.9743 0.400024 24.0078 0.400024 23ZM0.400024 42C0.400024 40.9921 0.80038 40.0256 1.51302 39.3129C2.22566 38.6003 3.1922 38.2 4.20002 38.2H49.8C50.8078 38.2 51.7744 38.6003 52.487 39.3129C53.1997 40.0256 53.6 40.9921 53.6 42C53.6 43.0078 53.1997 43.9743 52.487 44.687C51.7744 45.3996 50.8078 45.7999 49.8 45.7999H4.20002C3.1922 45.7999 2.22566 45.3996 1.51302 44.687C0.80038 43.9743 0.400024 43.0078 0.400024 42Z" fill="#00D2BD"/>
</svg>
