<svg width="96" height="17" viewBox="0 0 96 17" fill="none" xmlns="http://www.w3.org/2000/svg">
<path d="M14.7644 16.6125L9.47913 13.8321L4.19384 16.6125L5.20371 10.7241L0.916016 6.55345L6.82988 5.69459L9.47252 0.254517L12.1152 5.69459L18.029 6.55345L13.7517 10.7241L14.7644 16.6125Z" fill="#FFC529"/>
<path d="M34.0091 16.6125L28.7238 13.8321L23.4385 16.6125L24.4484 10.7241L20.1607 6.55345L26.0745 5.69459L28.7172 0.254517L31.3598 5.69459L37.2737 6.55345L32.9964 10.7241L34.0091 16.6125Z" fill="#FFC529"/>
<path d="M53.2537 16.6125L47.9684 13.8321L42.6832 16.6125L43.693 10.7241L39.4053 6.55345L45.3192 5.69459L47.9618 0.254517L50.6045 5.69459L56.5184 6.55345L52.241 10.7241L53.2537 16.6125Z" fill="#FFC529"/>
<path d="M72.4984 16.6125L67.2131 13.8321L61.9278 16.6125L62.9377 10.7241L58.65 6.55345L64.5639 5.69459L67.2065 0.254517L69.8491 5.69459L75.763 6.55345L71.4857 10.7241L72.4984 16.6125Z" fill="#FFC529"/>
<path d="M92.7053 16.6125L87.42 13.8321L82.1347 16.6125L83.1446 10.7241L78.8569 6.55345L84.7708 5.69459L87.4134 0.254517L90.0561 5.69459L95.9699 6.55345L91.6926 10.7241L92.7053 16.6125Z" fill="#D3D3D3"/>
</svg>
