<svg width="36" height="34" viewBox="0 0 36 34" fill="none" xmlns="http://www.w3.org/2000/svg">
<path d="M32.5083 0.416626H14.2861V6.11107H18.8416V8.38885H4.03605C2.09994 8.38885 0.619385 9.8694 0.619385 11.8055V24.3333C0.619385 26.2694 2.09994 27.75 4.03605 27.75H5.17494V33.5583L12.3499 27.75H19.9805V19.7777H32.5083C34.4444 19.7777 35.9249 18.2972 35.9249 16.3611V3.83329C35.9249 1.89718 34.4444 0.416626 32.5083 0.416626ZM12.9194 23.0805L12.3499 21.2583H8.81938L8.13605 23.0805H5.40272L9.16105 12.9444H11.8944L15.6527 23.0805H12.9194ZM30.2305 14.0833V16.3611C28.7499 16.3611 27.1555 15.9055 25.7888 15.2222C24.4222 15.9055 22.8277 16.2472 21.2333 16.3611L21.1194 14.0833C21.9166 14.0833 22.7138 13.9694 23.5111 13.7416C22.4861 12.7166 21.8027 11.4638 21.4611 10.0972H23.8527C24.1944 11.1222 24.8777 11.9194 25.6749 12.6027C26.9277 11.5777 27.7249 10.0972 27.8388 8.38885H21.0055V6.11107H24.4222V3.83329H26.6999V6.11107H30.4583L30.5722 7.24996C30.6861 9.64163 29.7749 12.0333 28.0666 13.7416C28.8638 13.9694 29.5472 14.0833 30.2305 14.0833Z" fill="white"/>
</svg>
