<svg width="20" height="15" viewBox="0 0 20 15" fill="none" xmlns="http://www.w3.org/2000/svg">
<path d="M18.8422 2.35755C18.7992 2.10917 18.6779 1.88105 18.4959 1.70655C18.314 1.53205 18.0811 1.42031 17.8311 1.38766C12.6324 0.690766 7.36386 0.690766 2.16512 1.38766C1.91522 1.42015 1.68228 1.53174 1.50035 1.70611C1.31842 1.88048 1.19706 2.10848 1.15401 2.35677C0.49912 5.99946 0.49912 9.72974 1.15401 13.3724C1.19702 13.6208 1.31836 13.8489 1.50028 14.0234C1.68219 14.1979 1.91516 14.3097 2.16512 14.3423C4.76211 14.6905 7.37943 14.8651 9.99966 14.865C12.6194 14.865 15.2362 14.6904 17.8327 14.3423C18.0827 14.3098 18.3157 14.1981 18.4976 14.0236C18.6796 13.849 18.8009 13.6209 18.8438 13.3724C19.4977 9.72988 19.4972 5.99992 18.8422 2.35755ZM6.88856 10.2139V5.51688C6.89533 5.38032 6.9366 5.2477 7.00853 5.13142C7.08045 5.01514 7.18068 4.91899 7.29984 4.85195C7.41901 4.78491 7.55322 4.74917 7.68994 4.74807C7.82667 4.74697 7.96144 4.78055 8.08167 4.84566L12.6861 7.19377C12.8127 7.25443 12.9195 7.34963 12.9943 7.46839C13.0691 7.58716 13.1087 7.72464 13.1087 7.86499C13.1087 8.00533 13.0691 8.14282 12.9943 8.26159C12.9195 8.38035 12.8127 8.47555 12.6861 8.53621L8.08167 10.8843C7.96149 10.9494 7.82679 10.983 7.69013 10.9819C7.55346 10.9809 7.4193 10.9452 7.30015 10.8782C7.18101 10.8113 7.08077 10.7152 7.00879 10.5991C6.93682 10.4829 6.89545 10.3504 6.88856 10.2139Z" fill="white"/>
</svg>
