<svg width="20" height="15" viewBox="0 0 20 15" fill="none" xmlns="http://www.w3.org/2000/svg">
<path d="M18.8422 1.99256C18.7992 1.74418 18.6779 1.51606 18.4959 1.34156C18.314 1.16706 18.0811 1.05532 17.8311 1.02267C12.6324 0.325776 7.36386 0.325776 2.16512 1.02267C1.91522 1.05516 1.68228 1.16675 1.50035 1.34112C1.31842 1.51549 1.19706 1.74349 1.15401 1.99178C0.49912 5.63447 0.49912 9.36475 1.15401 13.0074C1.19702 13.2558 1.31836 13.4839 1.50028 13.6584C1.68219 13.8329 1.91516 13.9447 2.16512 13.9773C4.76211 14.3255 7.37943 14.5001 9.99966 14.5C12.6194 14.5 15.2362 14.3254 17.8327 13.9773C18.0827 13.9448 18.3157 13.8331 18.4976 13.6586C18.6796 13.484 18.8009 13.2559 18.8438 13.0074C19.4977 9.36489 19.4972 5.63493 18.8422 1.99256ZM6.88856 9.84889V5.15189C6.89533 5.01533 6.9366 4.88271 7.00853 4.76643C7.08045 4.65015 7.18068 4.554 7.29984 4.48696C7.41901 4.41992 7.55322 4.38418 7.68994 4.38308C7.82667 4.38198 7.96144 4.41556 8.08167 4.48067L12.6861 6.82878C12.8127 6.88944 12.9195 6.98464 12.9943 7.1034C13.0691 7.22217 13.1087 7.35965 13.1087 7.5C13.1087 7.64034 13.0691 7.77783 12.9943 7.8966C12.9195 8.01536 12.8127 8.11056 12.6861 8.17122L8.08167 10.5193C7.96149 10.5844 7.82679 10.618 7.69013 10.6169C7.55346 10.6159 7.4193 10.5802 7.30015 10.5133C7.18101 10.4463 7.08077 10.3503 7.00879 10.2341C6.93682 10.1179 6.89545 9.98538 6.88856 9.84889Z" fill="#00D2BD"/>
</svg>
